HIERARCHY
ROOT Hips
{
 OFFSET 0.000000 0.000000 0.000000
 CHANNELS 6 Xposition Yposition Zposition Yrotation Xrotation Zrotation
 JOINT Chest
 {
  OFFSET 0.000000 9.585900 0.002600
  CHANNELS 3 Yrotation Xrotation Zrotation
  JOINT Chest2
  {
   OFFSET 0.000000 9.601200 -0.005300
   CHANNELS 3 Yrotation Xrotation Zrotation
   JOINT Chest3
   {
    OFFSET 0.000000 9.561800 0.000000
    CHANNELS 3 Yrotation Xrotation Zrotation
    JOINT Chest4
    {
     OFFSET 0.000000 9.552100 0.000000
     CHANNELS 3 Yrotation Xrotation Zrotation
     JOINT Neck
     {
      OFFSET 0.000000 14.453000 0.000000
      CHANNELS 3 Yrotation Xrotation Zrotation
      JOINT Head
      {
       OFFSET 0.000000 8.936500 -0.011300
       CHANNELS 3 Yrotation Xrotation Zrotation
       End Site
       {
        OFFSET 0.000000 17.073600 -0.006000
       }
      }
     }
     JOINT RightCollar
     {
      OFFSET -2.921100 9.558500 0.000000
      CHANNELS 3 Yrotation Xrotation Zrotation
      JOINT RightShoulder
      {
       OFFSET -13.519700 0.000000 0.000000
       CHANNELS 3 Yrotation Xrotation Zrotation
       JOINT RightElbow
       {
        OFFSET 0.000000 -29.696600 0.000000
        CHANNELS 3 Yrotation Xrotation Zrotation
        JOINT RightWrist
        {
         OFFSET 0.000000 -24.004700 0.000000
         CHANNELS 3 Yrotation Xrotation Zrotation
         End Site
         {
          OFFSET 0.000000 -17.728500 0.000000
         }
        }
       }
      }
     }
     JOINT LeftCollar
     {
      OFFSET 2.921100 9.558500 0.000000
      CHANNELS 3 Yrotation Xrotation Zrotation
      JOINT LeftShoulder
      {
       OFFSET 13.519700 0.000000 0.000000
       CHANNELS 3 Yrotation Xrotation Zrotation
       JOINT LeftElbow
       {
        OFFSET 0.000000 -29.696600 0.000000
        CHANNELS 3 Yrotation Xrotation Zrotation
        JOINT LeftWrist
        {
         OFFSET 0.000000 -24.004700 0.000000
         CHANNELS 3 Yrotation Xrotation Zrotation
         End Site
         {
          OFFSET 0.000000 -17.728500 0.000000
         }
        }
       }
      }
     }
    }
   }
  }
 }
 JOINT RightHip
 {
  OFFSET -7.771700 -0.012900 -0.001300
  CHANNELS 3 Yrotation Xrotation Zrotation
  JOINT RightKnee
  {
   OFFSET 0.000000 -40.869800 0.001200
   CHANNELS 3 Yrotation Xrotation Zrotation
   JOINT RightAnkle
   {
    OFFSET 0.000000 -39.717900 0.002100
    CHANNELS 3 Yrotation Xrotation Zrotation
    JOINT RightToe
    {
     OFFSET 0.000000 -4.965400 11.033500
     CHANNELS 3 Yrotation Xrotation Zrotation
     End Site
     {
      OFFSET 0.000000 -1.423100 5.872300
     }
    }
   }
  }
 }
 JOINT LeftHip
 {
  OFFSET 7.771700 -0.012900 -0.001300
  CHANNELS 3 Yrotation Xrotation Zrotation
  JOINT LeftKnee
  {
   OFFSET 0.000000 -40.869800 0.001200
   CHANNELS 3 Yrotation Xrotation Zrotation
   JOINT LeftAnkle
   {
    OFFSET 0.000000 -39.717900 0.002100
    CHANNELS 3 Yrotation Xrotation Zrotation
    JOINT LeftToe
    {
     OFFSET 0.000000 -4.965400 11.033500
     CHANNELS 3 Yrotation Xrotation Zrotation
     End Site
     {
      OFFSET 0.000000 -1.423100 5.872300
     }
    }
   }
  }
 }
}
MOTION
Frames: 12
Frame Time: 0.008333
-228.932953 57.621174 24.048136 176.922451 -52.147630 -3.121172 4.264885 22.891617 3.668510 2.146283 13.100798 1.818405 2.808420 16.397306 2.369870 2.138794 13.099394 1.825535 1.067811 16.367616 3.339134 0.807307 -5.380428 5.821427 1.645922 3.675897 0.766917 -0.607508 -15.781042 -10.995524 -91.351477 -61.441390 140.346769 15.242788 7.743217 -15.854117 -9.980659 1.095022 -1.214800 5.689401 -13.097354 12.582840 79.037707 -56.643860 -129.420724 0.920565 -3.930168 22.413023 6.231214 -19.341375 -3.000766 -42.495274 71.898247 -46.122631 4.234801 -12.319639 13.727732 0.027418 0.070141 0.076585 -10.145215 -18.071475 8.353155 51.433123 81.645007 51.327459 -1.382061 -17.347493 -21.070166 -0.025142 0.040591 -0.011108
-228.924162 57.626579 24.052668 176.921748 -52.167422 -3.134292 4.257429 22.895570 3.678691 2.124688 13.088701 1.813946 2.783791 16.389559 2.367129 2.139210 13.107521 1.819521 1.066113 16.369582 3.343914 0.802626 -5.376659 5.830966 1.680796 3.697096 0.747200 -0.648569 -15.803922 -10.980206 -91.361235 -61.467672 140.356170 15.226175 7.764984 -15.830174 -9.982503 1.038721 -1.215360 5.727818 -13.020765 12.574702 79.022249 -56.652986 -129.393466 0.902276 -3.900236 22.405034 6.204178 -19.319232 -2.981729 -42.380718 71.927776 -45.999624 4.199403 -12.363710 13.666404 0.021528 0.101240 0.098935 -10.106773 -18.049269 8.377218 51.278618 81.657304 51.201802 -1.400714 -17.350345 -21.065570 -0.017328 0.039444 -0.005375
-228.915258 57.632872 24.055769 176.916438 -52.192979 -3.140869 4.238629 22.893901 3.680019 2.133264 13.103330 1.812882 2.744103 16.369867 2.361867 2.140359 13.114833 1.814365 1.074723 16.377233 3.345302 0.781517 -5.381427 5.853002 1.679490 3.681894 0.716491 -0.662597 -15.791782 -10.945615 -91.343495 -61.492497 140.351129 15.271901 7.821847 -15.831280 -9.949699 1.042198 -1.231075 5.729480 -13.002783 12.578850 79.007103 -56.661610 -129.370597 0.894796 -3.895014 22.401824 6.165045 -19.293293 -2.954905 -42.248530 71.961118 -45.879446 4.159156 -12.407545 13.606362 0.022000 0.115445 0.113583 -10.082026 -18.021592 8.388895 51.213024 81.661326 51.151310 -1.391056 -17.346724 -21.065662 -0.009023 0.035372 -0.006394
-228.907342 57.639138 24.057941 176.916580 -52.217499 -3.143472 4.216860 22.895609 3.670197 2.113087 13.099841 1.807623 2.751719 16.380771 2.360430 2.134127 13.114259 1.812109 1.095951 16.390862 3.339643 0.732393 -5.401663 5.891312 1.671640 3.669035 0.689577 -0.683659 -15.791783 -10.904716 -91.267842 -61.509843 140.317024 15.344074 7.885465 -15.856842 -9.928655 1.037327 -1.242029 5.739763 -12.980955 12.579765 78.973788 -56.678165 -129.342498 0.883391 -3.902312 22.399910 6.159202 -19.269585 -2.948572 -42.144291 72.005414 -45.760078 4.111996 -12.437004 13.564638 0.028166 0.109615 0.110954 -10.057227 -17.996870 8.395339 51.178128 81.664934 51.117430 -1.381454 -17.345987 -21.052510 -0.030095 0.038732 -0.008514
-228.899788 57.644938 24.059571 176.908953 -52.238212 -3.136504 4.164493 22.881590 3.638770 2.131950 13.117125 1.809131 2.774214 16.396302 2.361666 2.132123 13.114032 1.811279 1.058010 16.371640 3.356539 0.713317 -5.400139 5.901349 1.646120 3.648854 0.669241 -0.714860 -15.799822 -10.857745 -91.394436 -61.574876 140.387989 15.314864 7.953908 -15.791779 -9.947637 0.998083 -1.240899 5.755726 -12.943615 12.584043 78.902449 -56.721927 -129.268347 0.823695 -3.884434 22.409965 6.142795 -19.249592 -2.940603 -42.022757 72.051882 -45.641670 4.065939 -12.472093 13.525550 0.064651 0.073024 0.085267 -10.032826 -17.976092 8.398343 51.108935 81.669954 51.051438 -1.383469 -17.340791 -21.040593 -0.036520 0.035343 -0.010148
-228.891703 57.651080 24.060186 176.891895 -52.260966 -3.124595 4.164467 22.895192 3.635094 2.135961 13.121173 1.809025 2.739720 16.378375 2.353105 2.123686 13.112041 1.807211 0.998299 16.345787 3.374606 0.739793 -5.365330 5.887852 1.661497 3.657652 0.647820 -0.760012 -15.814889 -10.810700 -91.451424 -61.634990 140.418790 15.317582 8.022558 -15.739967 -9.953532 0.935546 -1.252041 5.766942 -12.876948 12.607111 78.871464 -56.731954 -129.199547 0.791202 -3.846862 22.435988 6.131034 -19.228296 -2.926820 -41.914824 72.093935 -45.537757 4.032545 -12.521414 13.473020 0.066049 0.077097 0.091503 -10.014470 -17.951308 8.401449 51.062416 81.671741 51.004891 -1.387556 -17.333419 -21.034464 -0.037169 0.026979 -0.012888
-228.883000 57.655343 24.061536 176.883113 -52.268818 -3.123275 4.159401 22.893937 3.635123 2.116978 13.110182 1.802345 2.730981 16.375978 2.346780 2.077862 13.080273 1.797269 1.021777 16.377862 3.373846 0.710317 -5.358599 5.901766 1.728841 3.710816 0.634602 -0.827636 -15.844402 -10.773359 -91.476434 -61.689408 140.432336 15.338167 8.101811 -15.694040 -9.887459 0.970149 -1.271414 5.756740 -12.866019 12.613955 78.859812 -56.736699 -129.166270 0.754463 -3.766871 22.478305 6.117149 -19.219016 -2.912947 -41.804546 72.131390 -45.426197 4.004775 -12.585121 13.413752 0.056618 0.104013 0.109175 -9.989449 -17.940641 8.414695 50.962511 81.679050 50.915220 -1.388603 -17.331140 -21.030378 -0.062684 0.027502 -0.015322
-228.873659 57.659768 24.062083 176.879541 -52.277550 -3.129986 4.127113 22.873556 3.610908 2.104834 13.101526 1.796793 2.750518 16.390583 2.353893 2.071026 13.075184 1.790770 1.032852 16.396108 3.377805 0.648865 -5.365388 5.922874 1.723174 3.717791 0.609203 -0.871430 -15.855150 -10.718250 -91.504210 -61.744870 140.447166 15.362872 8.193051 -15.645325 -9.862262 0.979541 -1.276229 5.747625 -12.855754 12.617398 78.834151 -56.765957 -129.110662 0.734809 -3.671663 22.531125 6.096227 -19.213075 -2.893508 -41.699381 72.168143 -45.325197 3.972546 -12.613419 13.382700 0.049079 0.116419 0.112841 -9.955638 -17.931542 8.438972 50.836526 81.698054 50.798842 -1.384125 -17.331285 -21.013640 -0.074587 0.027536 -0.015112
-228.864945 57.663151 24.062626 176.874862 -52.278934 -3.132534 4.118500 22.863549 3.603534 2.095903 13.092778 1.788893 2.741310 16.386043 2.354807 2.065241 13.069159 1.777310 1.045597 16.415205 3.389255 0.581600 -5.370959 5.939981 1.717722 3.724754 0.590450 -0.919268 -15.863026 -10.661729 -91.540940 -61.800795 140.471409 15.392382 8.299214 -15.593371 -9.868847 0.923785 -1.290314 5.777791 -12.775196 12.642925 78.815935 -56.790567 -129.078717 0.714003 -3.532277 22.619011 6.058290 -19.214214 -2.863066 -41.608221 72.192924 -45.258686 3.944471 -12.656875 13.340675 0.059398 0.119092 0.115564 -9.949662 -17.928531 8.450777 50.817523 81.704476 50.776036 -1.371794 -17.330281 -21.005674 -0.072901 0.026576 -0.021743
-228.856137 57.666528 24.062443 176.875730 -52.280839 -3.140332 4.107177 22.849047 3.594772 2.099871 13.098766 1.791761 2.697669 16.348950 2.321844 2.086056 13.084907 1.780177 1.024742 16.420964 3.401763 0.541677 -5.361103 5.950518 1.681673 3.721322 0.554079 -0.948138 -15.857084 -10.580500 -91.504172 -61.832730 140.470752 15.467288 8.433323 -15.575198 -9.861316 0.919247 -1.291337 5.793104 -12.743790 12.657786 78.820816 -56.827434 -129.061497 0.710443 -3.348694 22.735722 6.032239 -19.212794 -2.842883 -41.534923 72.218386 -45.190027 3.918670 -12.701149 13.295296 0.079988 0.086521 0.096516 -9.932255 -17.926109 8.465556 50.745391 81.715086 50.715825 -1.367127 -17.328703 -21.005029 -0.074543 0.024353 -0.021201
-228.847126 57.670104 24.061381 176.879522 -52.285142 -3.152040 4.092809 22.831878 3.583957 2.094439 13.092614 1.782682 2.690393 16.341285 2.310200 2.089899 13.086825 1.777715 1.001390 16.426952 3.410591 0.497781 -5.354006 5.964344 1.688643 3.742426 0.556593 -1.016012 -15.874209 -10.530437 -91.597890 -61.912683 140.527123 15.486869 8.582237 -15.490934 -9.843685 0.936930 -1.283474 5.791235 -12.739454 12.662401 78.811886 -56.838320 -129.032242 0.680031 -3.111312 22.893210 6.015000 -19.208634 -2.827880 -41.485106 72.245271 -45.129979 3.900839 -12.749607 13.242927 0.079251 0.088207 0.100438 -9.894436 -17.922532 8.487648 50.595506 81.733566 50.594042 -1.379365 -17.330456 -20.998945 -0.065446 0.020337 -0.020989
-228.839294 57.674480 24.058787 176.869239 -52.297664 -3.145902 4.088553 22.827025 3.569087 2.086322 13.082077 1.770253 2.704452 16.354243 2.320271 2.088154 13.084427 1.774100 0.912418 16.391316 3.389177 0.493471 -5.322494 5.980151 1.610376 3.714582 0.495378 -1.032198 -15.853356 -10.428910 -91.697957 -62.001487 140.589646 15.516989 8.753739 -15.396546 -9.843262 0.936390 -1.282745 5.788416 -12.736743 12.665009 78.804111 -56.850735 -129.000898 0.637014 -2.835013 23.080691 6.008540 -19.194905 -2.820498 -41.444060 72.272827 -45.076269 3.884789 -12.817796 13.166530 0.072954 0.106348 0.125413 -9.865332 -17.910503 8.498094 50.549726 81.743106 50.554631 -1.386996 -17.328421 -20.988096 -0.070945 0.014928 -0.022838
